<?xml version='1.0' encoding='utf-8'?>
<svg xmlns="http://www.w3.org/2000/svg" width="63" height="28" viewBox="0 0 63 28" fill="none">
<path d="M0.6 9.1H4.05V10.225H0.6V9.1ZM3.93 5.74C3.83 5.57 3.71 5.465 3.57 5.425C3.44 5.375 3.315 5.35 3.195 5.35C3.045 5.35 2.915 5.395 2.805 5.485C2.705 5.565 2.625 5.705 2.565 5.905C2.505 6.105 2.475 6.37 2.475 6.7V16H1.275V6.55C1.275 6 1.355 5.55 1.515 5.2C1.675 4.85 1.9 4.59 2.19 4.42C2.49 4.24 2.85 4.15 3.27 4.15C3.49 4.15 3.685 4.18 3.855 4.24C4.025 4.3 4.17 4.375 4.29 4.465C4.42 4.555 4.52 4.65 4.59 4.75L3.93 5.74ZM4.81699 12.55C4.81699 11.85 4.97199 11.23 5.28199 10.69C5.60199 10.15 6.03199 9.725 6.57199 9.415C7.11199 9.105 7.71699 8.95 8.38699 8.95C9.06699 8.95 9.67199 9.105 10.202 9.415C10.742 9.725 11.167 10.15 11.477 10.69C11.797 11.23 11.957 11.85 11.957 12.55C11.957 13.24 11.797 13.86 11.477 14.41C11.167 14.95 10.742 15.375 10.202 15.685C9.67199 15.995 9.06699 16.15 8.38699 16.15C7.71699 16.15 7.11199 15.995 6.57199 15.685C6.03199 15.375 5.60199 14.95 5.28199 14.41C4.97199 13.86 4.81699 13.24 4.81699 12.55ZM6.03199 12.55C6.03199 13.03 6.13199 13.455 6.33199 13.825C6.54199 14.195 6.82199 14.49 7.17199 14.71C7.53199 14.92 7.93699 15.025 8.38699 15.025C8.83699 15.025 9.23699 14.92 9.58699 14.71C9.94699 14.49 10.227 14.195 10.427 13.825C10.637 13.455 10.742 13.03 10.742 12.55C10.742 12.07 10.637 11.645 10.427 11.275C10.227 10.895 9.94699 10.6 9.58699 10.39C9.23699 10.18 8.83699 10.075 8.38699 10.075C7.93699 10.075 7.53199 10.18 7.17199 10.39C6.82199 10.6 6.54199 10.895 6.33199 11.275C6.13199 11.645 6.03199 12.07 6.03199 12.55ZM13.6055 4.3H14.8055V16H13.6055V4.3ZM17.0625 4.3H18.2625V16H17.0625V4.3ZM19.9195 12.55C19.9195 11.85 20.0745 11.23 20.3845 10.69C20.7045 10.15 21.1345 9.725 21.6745 9.415C22.2145 9.105 22.8195 8.95 23.4895 8.95C24.1695 8.95 24.7745 9.105 25.3045 9.415C25.8445 9.725 26.2695 10.15 26.5795 10.69C26.8995 11.23 27.0595 11.85 27.0595 12.55C27.0595 13.24 26.8995 13.86 26.5795 14.41C26.2695 14.95 25.8445 15.375 25.3045 15.685C24.7745 15.995 24.1695 16.15 23.4895 16.15C22.8195 16.15 22.2145 15.995 21.6745 15.685C21.1345 15.375 20.7045 14.95 20.3845 14.41C20.0745 13.86 19.9195 13.24 19.9195 12.55ZM21.1345 12.55C21.1345 13.03 21.2345 13.455 21.4345 13.825C21.6445 14.195 21.9245 14.49 22.2745 14.71C22.6345 14.92 23.0395 15.025 23.4895 15.025C23.9395 15.025 24.3395 14.92 24.6895 14.71C25.0495 14.49 25.3295 14.195 25.5295 13.825C25.7395 13.455 25.8445 13.03 25.8445 12.55C25.8445 12.07 25.7395 11.645 25.5295 11.275C25.3295 10.895 25.0495 10.6 24.6895 10.39C24.3395 10.18 23.9395 10.075 23.4895 10.075C23.0395 10.075 22.6345 10.18 22.2745 10.39C21.9245 10.6 21.6445 10.895 21.4345 11.275C21.2345 11.645 21.1345 12.07 21.1345 12.55ZM27.4383 9.1H28.7883L30.5133 13.585L32.3883 8.575L34.3983 13.615L36.1383 9.1H37.4883L34.4883 16.525L32.4033 11.5L30.4383 16.525L27.4383 9.1Z" fill="black"/>
<path d="M38.3672 6.08618C37.9217 6.17952 37.9218 6.17966 37.9218 6.17985C37.9218 6.17998 37.9219 6.18022 37.9219 6.18048C37.922 6.181 37.9222 6.18172 37.9223 6.18263C37.9227 6.18447 37.9232 6.18709 37.9239 6.19048C37.9252 6.19728 37.9271 6.20717 37.9297 6.22006C37.9348 6.24585 37.9423 6.28362 37.9524 6.33255C37.9725 6.43041 38.0025 6.57291 38.0425 6.75333C38.1225 7.11411 38.2427 7.62696 38.4039 8.23805C38.7257 9.45845 39.2131 11.0787 39.8737 12.664C40.5313 14.2422 41.3748 15.8212 42.4227 16.9317C43.4759 18.0477 44.7953 18.7457 46.3586 18.3829L46.2636 17.9376L46.1687 17.4923C45.0345 17.7554 44.0181 17.2849 43.085 16.2961C42.1466 15.3018 41.3532 13.8397 40.711 12.2986C40.0719 10.7646 39.5967 9.18727 39.2809 7.98995C39.1233 7.39216 39.0059 6.89111 38.928 6.5402C38.8891 6.36478 38.8601 6.22699 38.8409 6.13351C38.8313 6.08678 38.8242 6.05113 38.8195 6.0274C38.8172 6.01554 38.8154 6.00666 38.8143 6.00087C38.8137 5.99797 38.8133 5.99584 38.8131 5.9945C38.8129 5.99383 38.8129 5.99336 38.8128 5.99308C38.8128 5.99294 38.8128 5.99288 38.8127 5.99281C38.8127 5.99281 38.8128 5.99285 38.3672 6.08618ZM46.2636 17.9376L46.3586 18.3829C47.9219 18.0202 48.8329 16.8046 49.3328 15.3282C49.8302 13.8592 49.9518 12.0562 49.9054 10.3362C49.8588 8.60837 49.6411 6.92559 49.4362 5.67805C49.3336 5.05338 49.2338 4.53579 49.1596 4.17368C49.1224 3.99258 49.0916 3.85026 49.07 3.75276C49.0592 3.70401 49.0507 3.66645 49.0448 3.64085C49.0419 3.62804 49.0396 3.61823 49.0381 3.61149C49.0373 3.60813 49.0367 3.60553 49.0363 3.60371C49.036 3.60281 49.0359 3.60209 49.0357 3.60158C49.0357 3.60132 49.0356 3.60108 49.0356 3.60095C49.0356 3.60076 49.0355 3.60062 48.5941 3.71326C48.1527 3.82589 48.1527 3.82585 48.1527 3.82586C48.1528 3.82593 48.1528 3.82598 48.1528 3.82612C48.1529 3.82639 48.153 3.82686 48.1531 3.82753C48.1534 3.82886 48.1539 3.83096 48.1546 3.83383C48.1559 3.83958 48.158 3.84839 48.1607 3.86017C48.1661 3.88373 48.1741 3.91917 48.1844 3.96574C48.2051 4.05888 48.2349 4.19649 48.271 4.37256C48.3432 4.72478 48.4407 5.23044 48.5411 5.84151C48.7421 7.06545 48.9534 8.70405 48.9985 10.3758C49.0438 12.0554 48.92 13.7303 48.4746 15.0457C48.0318 16.3537 47.3028 17.2291 46.1687 17.4923L46.2636 17.9376Z" fill="#009FF4"/>
<path d="M48.5939 3.71324L48.4194 4.13794L48.7094 4.25498L48.9245 4.02074L48.5939 3.71324ZM47.6152 3.31833L47.4407 3.74303L48.4194 4.13794L48.5939 3.71324L48.7684 3.28854L47.7897 2.89362L47.6152 3.31833ZM48.5939 3.71324L48.9245 4.02074L49.6504 3.23034L49.3197 2.92284L48.9891 2.61534L48.2632 3.40574L48.5939 3.71324Z" fill="#009FF4"/>
<path d="M38.3671 6.08618L38.1926 6.51088L38.4826 6.62792L38.6977 6.39368L38.3671 6.08618ZM37.3884 5.69127L37.2139 6.11597L38.1926 6.51088L38.3671 6.08618L38.5416 5.66148L37.5629 5.26656L37.3884 5.69127ZM38.3671 6.08618L38.6977 6.39368L39.4236 5.60328L39.0929 5.29578L38.7623 4.98828L38.0364 5.77868L38.3671 6.08618Z" fill="#009FF4"/>
<path d="M50.144 17.9703L50.1635 17.5133V17.5133L50.144 17.9703ZM49.4483 11.9119L49.3533 11.4665L40.8308 13.444L40.9258 13.8893L41.0208 14.3347L49.5433 12.3572L49.4483 11.9119ZM45.9772 18.0041C45.5241 17.9906 45.5241 17.9906 45.5241 17.9907C45.5241 17.9908 45.524 17.9909 45.524 17.991C45.524 17.9912 45.524 17.9915 45.524 17.9918C45.524 17.9924 45.5239 17.9932 45.5239 17.9943C45.5238 17.9963 45.5237 17.9992 45.5235 18.0029C45.5232 18.0103 45.5228 18.0208 45.5224 18.0343C45.5214 18.0614 45.5203 18.1003 45.5192 18.1494C45.517 18.2474 45.5152 18.3863 45.5168 18.5519C45.5199 18.8813 45.5362 19.3242 45.5905 19.7635C45.6435 20.1918 45.7376 20.6635 45.9191 21.0226C46.0107 21.2039 46.1418 21.3915 46.3343 21.5192C46.542 21.657 46.7899 21.7038 47.0514 21.6431L46.9564 21.1978L46.8614 20.7524C46.8388 20.7577 46.843 20.7541 46.8418 20.7533C46.8255 20.7424 46.7824 20.7031 46.7289 20.5974C46.6203 20.3824 46.5407 20.0392 46.4908 19.6361C46.4424 19.2441 46.427 18.839 46.424 18.5284C46.4226 18.374 46.4242 18.2449 46.4262 18.1549C46.4272 18.1099 46.4283 18.0749 46.4291 18.0514C46.4295 18.0396 46.4298 18.0308 46.4301 18.0251C46.4302 18.0223 46.4303 18.0202 46.4303 18.0189C46.4303 18.0183 46.4304 18.0179 46.4304 18.0177C46.4304 18.0175 46.4304 18.0175 46.4304 18.0175C46.4304 18.0175 46.4304 18.0175 46.4304 18.0175C46.4304 18.0176 46.4304 18.0176 45.9772 18.0041ZM46.9564 21.1978L47.0514 21.6431C47.5156 21.5354 47.8346 21.1655 48.0629 20.8298C48.2943 20.4893 48.5172 20.0484 48.7199 19.6877C48.9366 19.3019 49.1463 18.9745 49.3842 18.7461C49.6096 18.5296 49.841 18.4195 50.1244 18.4272L50.144 17.9703L50.1635 17.5133C49.5798 17.4975 49.1212 17.7461 48.7639 18.0892C48.4191 18.4202 48.1534 18.8533 47.9321 19.2472C47.6966 19.6664 47.5188 20.0247 47.3171 20.3215C47.1121 20.623 46.9654 20.7283 46.8614 20.7524L46.9564 21.1978ZM50.144 17.9703L50.1244 18.4272C50.1245 18.4272 50.1253 18.4272 50.1269 18.4275C50.1286 18.4278 50.1314 18.4283 50.1353 18.4295C50.1434 18.432 50.1564 18.437 50.1746 18.4472C50.2123 18.4683 50.2639 18.5071 50.328 18.5733C50.4581 18.7076 50.6037 18.9169 50.76 19.1985C51.0714 19.7596 51.379 20.521 51.6731 21.3132C51.9596 22.0852 52.2416 22.9109 52.479 23.5204C52.599 23.8285 52.7172 24.1072 52.8308 24.3189C52.8872 24.424 52.9506 24.528 53.0217 24.6147C53.0819 24.688 53.1994 24.8149 53.3798 24.8619L53.5 24.4193L53.6202 23.9766C53.7216 24.0031 53.7546 24.0619 53.7249 24.0256C53.7061 24.0027 53.6742 23.9556 53.6304 23.874C53.5437 23.7125 53.4416 23.4758 53.3243 23.1745C53.087 22.5652 52.826 21.7959 52.5235 20.9808C52.2284 20.1859 51.9009 19.3683 51.5535 18.7424C51.3804 18.4306 51.1905 18.1443 50.9822 17.9293C50.7807 17.7213 50.5061 17.5226 50.1635 17.5133L50.144 17.9703ZM53.5 24.4193L53.3798 24.8619C53.5404 24.9038 53.6935 24.8631 53.8081 24.7844C53.9067 24.7168 53.9664 24.6296 54.0005 24.5708C54.069 24.4525 54.1124 24.3088 54.1435 24.1799C54.2086 23.9096 54.2576 23.5353 54.2962 23.1089C54.3742 22.248 54.4172 21.0888 54.4403 19.9202C54.4865 17.5812 54.4536 15.1523 54.4536 14.9119L54 14.9193L53.5464 14.9267C53.5464 15.1862 53.5792 17.5896 53.5332 19.9168C53.5102 21.0812 53.4677 22.2135 53.3927 23.0404C53.3549 23.4578 53.3106 23.7764 53.262 23.9778C53.2363 24.0847 53.2177 24.1214 53.2188 24.1196C53.2192 24.119 53.2438 24.074 53.3059 24.0314C53.384 23.9778 53.4991 23.9451 53.6202 23.9766L53.5 24.4193Z" fill="#009FF4"/>
<path d="M56.5132 10.2863C58.1593 9.86528 59.9159 11.0468 60.3217 13.1454C60.7293 15.2542 59.56 17.2253 57.8866 17.6536C56.2404 18.0749 54.483 16.8935 54.0772 14.7948C53.6696 12.6859 54.8398 10.7146 56.5132 10.2863Z" stroke="#009FF4" stroke-width="1.2"/>
</svg>